<?xml version="1.0" encoding="utf-8"?>
<!-- Generator: Adobe Illustrator 27.5.0, SVG Export Plug-In . SVG Version: 6.00 Build 0)  -->
<svg version="1.1" id="Layer_1" xmlns="http://www.w3.org/2000/svg" xmlns:xlink="http://www.w3.org/1999/xlink" x="0px" y="0px"
	 viewBox="0 0 500 350" style="enable-background:new 0 0 500 350;" xml:space="preserve">
<rect style="fill:#FFFFFF00;" width="500" height="350"/>
<path style="fill:#473D2E;" d="M326.621,215.243c0.142,2.706-0.083,5.458-0.758,8.139c-0.678,2.685-1.823,5.299-3.426,7.605
	c-1.594,2.306-3.647,4.267-5.856,5.715c-0.566,0.346-1.104,0.729-1.69,1.008c-0.57,0.287-1.141,0.566-1.711,0.828
	c-1.148,0.438-2.302,0.895-3.418,1.137c-0.565,0.12-1.123,0.283-1.673,0.366c-0.55,0.075-1.091,0.154-1.624,0.225
	c-0.541,0.088-1.061,0.112-1.594,0.125c-0.521,0.025-1.041,0.037-1.545,0.054c-2.148-0.058-4.212-0.271-6.273-0.957
	c-0.246-0.088-0.496-0.162-0.754-0.241c-0.25-0.092-0.504-0.208-0.749-0.313c-0.496-0.233-0.982-0.438-1.449-0.695
	c-0.466-0.283-0.924-0.57-1.361-0.857c-0.445-0.271-0.836-0.666-1.236-0.995c-0.191-0.179-0.391-0.346-0.574-0.516
	c-0.183-0.188-0.35-0.383-0.516-0.579c-0.325-0.391-0.658-0.758-0.933-1.161c-0.524-0.824-0.999-1.615-1.299-2.436
	c-0.688-1.599-0.866-3.117-0.958-4.433c0-0.649,0.038-1.271,0.067-1.845c0.074-0.566,0.175-1.099,0.271-1.586
	c0.47-1.948,1.148-3.28,1.794-4.108c0.67-0.824,1.249-1.161,1.748-1.049c0.5,0.112,0.907,0.666,1.258,1.548
	c0.35,0.879,0.711,2.103,1.224,3.451c0.491,1.336,1.273,2.798,2.298,3.643c0.229,0.241,0.532,0.375,0.774,0.541
	c0.124,0.079,0.291,0.112,0.412,0.175c0.07,0.033,0.133,0.063,0.203,0.092l0.226,0.059c0.162,0.025,0.258,0.104,0.445,0.112
	c0.166,0.021,0.329,0.046,0.482,0.083c0.171,0.021,0.379,0.021,0.554,0.033c0.096,0.013,0.175,0.033,0.275,0.033l0.324-0.008
	c0.799,0.033,1.856-0.13,2.922-0.313c0.283-0.066,0.575-0.134,0.87-0.208c0.296-0.059,0.587-0.129,0.862-0.229
	c0.283-0.091,0.57-0.183,0.861-0.271c0.283-0.092,0.528-0.225,0.808-0.329c0.271-0.096,0.537-0.199,0.771-0.345
	c0.249-0.129,0.495-0.259,0.745-0.383c0.221-0.15,0.445-0.305,0.67-0.441c0.237-0.134,0.416-0.325,0.629-0.475
	c0.808-0.662,1.494-1.416,2.085-2.331c0.591-0.916,1.087-2.003,1.44-3.268c0.342-1.265,0.55-2.701,0.574-4.229
	c0.009-1.525-0.079-3.144-0.267-4.829c-0.183-1.687-0.474-3.455-0.953-5.249c-0.937-3.576-2.806-7.123-5.898-9.25
	c-3.264-2.34-7.035-3.493-10.645-4.188c-3.625-0.686-7.172-0.795-10.478-0.611c-3.305,0.162-6.373,0.762-9.158,1.324
	c-1.386,0.324-2.714,0.604-3.954,0.966c-0.629,0.166-1.232,0.328-1.823,0.482c-0.583,0.179-1.149,0.346-1.698,0.508
	c-1.111,0.3-2.119,0.645-3.072,0.936c-0.475,0.142-0.929,0.279-1.361,0.412c-0.433,0.134-0.845,0.275-1.233,0.399
	c-1.586,0.487-2.813,0.866-3.654,1.124c-0.846,0.25-1.308,0.358-1.308,0.358s0.337-0.325,1.016-0.899
	c0.679-0.578,1.687-1.415,3.102-2.339c0.69-0.48,1.486-0.991,2.381-1.482c0.891-0.508,1.865-1.058,2.96-1.548
	c0.554-0.246,1.12-0.504,1.698-0.775c0.587-0.25,1.212-0.475,1.853-0.72c1.273-0.517,2.656-0.92,4.117-1.352
	c0.732-0.233,1.494-0.375,2.276-0.566c0.774-0.175,1.565-0.379,2.398-0.491c0.824-0.129,1.669-0.263,2.526-0.399
	c0.87-0.088,1.748-0.167,2.651-0.25c3.605-0.237,7.51-0.133,11.548,0.549c4.063,0.662,8.176,2.027,12.413,3.664
	c4.472,1.736,9.025,4.699,12.514,8.929C324.257,204.537,326.372,209.815,326.621,215.243z M254.655,186.6
	c0.517-0.434,1.087-0.966,1.823-1.52c0.721-0.566,1.524-1.22,2.399-1.969c0.911-0.717,1.956-1.479,3.059-2.361
	c0.528-0.465,1.178-0.844,1.798-1.303c0.633-0.457,1.286-0.924,1.969-1.419c0.717-0.45,1.457-0.92,2.224-1.419
	c0.391-0.254,0.774-0.517,1.174-0.775c0.416-0.237,0.832-0.479,1.266-0.724c0.874-0.479,1.732-1.041,2.672-1.528
	c0.941-0.483,1.907-0.979,2.897-1.482c0.991-0.499,2.053-0.92,3.089-1.395c1.045-0.479,2.14-0.949,3.238-1.403
	c4.354-1.798,9-3.634,12.759-6.078c3.372-2.098,5.824-4.813,7.198-7.131c1.224-1.124,1.993-2.739,1.993-4.533
	c0-0.129-0.008-0.258-0.021-0.395c0.017-0.046,0.021-0.071,0.021-0.071s-0.012,0.025-0.021,0.046
	c-0.217-3.214-2.889-5.753-6.152-5.753c-3.418,0-6.182,2.764-6.182,6.173c0,3.413,2.764,6.186,6.182,6.186
	c0.532,0,1.058-0.075,1.549-0.208c-1.512,1.336-3.422,2.631-5.699,3.659c-3.784,1.794-8.347,2.997-12.975,4.429
	c-1.148,0.358-2.289,0.737-3.435,1.161c-1.136,0.425-2.276,0.787-3.367,1.262c-1.087,0.495-2.156,0.986-3.189,1.457
	c-1.024,0.496-1.981,1.087-2.918,1.607c-0.458,0.27-0.916,0.537-1.361,0.795c-0.425,0.299-0.841,0.591-1.253,0.874
	c-0.804,0.57-1.578,1.128-2.319,1.665c-0.699,0.595-1.357,1.17-1.985,1.72c-0.607,0.574-1.24,1.061-1.74,1.64
	c-1.032,1.124-1.96,2.123-2.73,3.072c-0.728,0.991-1.345,1.882-1.869,2.664c-0.55,0.775-0.916,1.515-1.233,2.127
	c-0.316,0.612-0.558,1.124-0.741,1.532c-0.37,0.812-0.508,1.211-0.508,1.211s0.375-0.229,1.083-0.773
	C253.698,187.373,254.131,187.023,254.655,186.6z M253.49,177.97c0.245-0.282,0.549-0.628,0.915-1.044
	c0.417-0.404,0.833-0.892,1.399-1.412c1.078-1.078,2.502-2.414,4.279-4.096c1.781-1.682,3.921-3.713,6.336-6.282
	c2.414-2.564,5.111-5.649,7.534-9.083c1.211-1.715,2.327-3.534,3.26-5.415c0.928-1.877,1.678-3.817,2.035-5.774
	c0.358-1.948,0.292-3.876-0.142-5.482c-0.391-1.644-1.249-2.877-1.932-3.846c-0.249-0.304-0.495-0.566-0.732-0.812
	c-1.058-1.882-3.068-3.151-5.374-3.151c-3.409,0-6.178,2.768-6.178,6.178c0,3.418,2.769,6.182,6.178,6.182
	c3.409,0,6.178-2.764,6.178-6.182c0-0.063-0.005-0.129-0.013-0.192c0.217,0.641,0.387,1.324,0.425,2.086
	c0.12,1.444-0.092,3.035-0.658,4.629c-1.165,3.218-3.538,6.411-6.14,9.366c-2.598,2.972-5.424,5.77-7.813,8.317
	c-2.406,2.548-4.371,4.821-5.903,6.873c-1.515,2.044-2.589,3.863-3.259,5.374c-0.354,0.732-0.563,1.453-0.758,2.006
	c-0.146,0.607-0.263,1.078-0.313,1.47c-0.059,0.8-0.042,1.153-0.042,1.153S253.04,178.545,253.49,177.97z M344.255,213.878
	c-0.675-0.482-1.324-0.828-1.982-1.111c-1.282-0.566-2.689-0.816-4.063-1.24c-0.088-0.033-0.184-0.067-0.283-0.096
	c0.649,0.736,1.345,1.502,1.898,2.377c0.35,0.524,0.683,1.061,0.999,1.619c0.287,0.574,0.574,1.145,0.857,1.715l0.162,0.379
	c0.07,0,0.146,0,0.221,0.013c1.161,0.278,1.982,1.02,2.655,1.914c0.638,0.908,1.103,1.978,1.558,2.914
	c0.079,0.184-0.242,0.325-0.346,0.163c-0.467-0.733-0.896-1.524-1.578-2.077c-0.475-0.4-1.182-0.813-1.881-1.129
	c0.166,0.487,0.324,0.966,0.44,1.453c0.142,0.62,0.25,1.236,0.358,1.849c0.066,0.611,0.142,1.215,0.217,1.814
	c0.1,1.074,0,2.132-0.025,3.122c0.462,0.171,0.891,0.512,1.099,0.729c0.559,0.62,0.804,1.44,0.796,2.285
	c-0.029,0.85-0.263,1.707-0.554,2.39c-0.013,0.037-0.084,0.037-0.096-0.004c-0.092-0.204-0.729-2.502-1.403-4.001
	c-0.116,0.688-0.221,1.341-0.375,1.948c-0.249,0.912-0.412,1.744-0.757,2.439c-0.321,0.691-0.592,1.295-0.824,1.786
	c-0.517,0.957-0.85,1.457-0.85,1.457s0.116-0.579,0.316-1.595c0.092-0.503,0.2-1.119,0.316-1.836
	c0.154-0.699,0.125-1.523,0.217-2.398c0.017-0.887,0.079-1.844,0.033-2.852c-0.108-1.007-0.15-2.068-0.316-3.155
	c-0.15-0.762-0.283-1.544-0.495-2.302c-0.079,0.108-0.158,0.225-0.255,0.32c-0.407,0.483-0.874,0.937-1.323,1.395
	c-0.945,0.979-1.827,1.961-2.307,3.014c-0.045,0.088-0.225,0.075-0.216-0.013c0.058-0.882,0.237-2.156,0.815-3.376
	c0.513-1.207,1.399-2.385,2.877-2.896c-0.346-0.899-0.633-1.823-1.037-2.71c-0.262-0.521-0.508-1.05-0.757-1.569
	c-0.246-0.517-0.559-1.012-0.866-1.482c-0.591-0.966-1.24-1.877-1.915-2.706c-0.541-0.607-1.069-1.182-1.594-1.715
	c0.278,0.837,0.32,1.645,0.208,2.39c-0.134,0.778-0.425,1.511-0.754,2.21c-0.316,0.695-0.712,1.378-1.058,2.049
	c-0.357,0.674-0.599,1.307-0.773,1.993c-0.7,3.247-0.192,6.278,0.807,9.396c0.978,3.218,2.456,6.174,3.589,9.487
	c0.741,2.256,0.97,4.837,1.29,7.414c0.175,1.119,0.629,1.028,1.157,0.587c0.366-0.304,0.778-0.783,1.103-1.065
	c0.795-0.684,1.64-1.345,2.539-2.04c0.833-0.708,1.661-1.486,2.319-2.415c2.534-3.704,4.395-8.554,4.736-13.283
	c0.316-3.992-0.732-8.596-3.005-11.614C345.517,214.998,344.9,214.369,344.255,213.878z M386.915,218.369
	c-0.399-0.225-0.94-0.412-1.27-0.604c-1.665-0.944-3.064-2.473-4.642-3.417c-0.791-0.462-1.595-0.899-2.39-1.341
	c-0.791-0.479-1.577-0.936-2.36-1.361c-0.395-0.216-0.782-0.416-1.174-0.62l-1.141-0.633c-0.753-0.412-1.498-0.782-2.243-1.095
	c-1.237-0.607-2.577-1.074-3.955-1.369c-1.365-0.366-2.78-0.438-4.158-0.338c-1.516,0.101-2.706,0.6-3.834,1.216
	c-1.129,0.624-2.165,1.319-3.397,1.928c-0.079,0.037-0.17,0.074-0.258,0.112c0.874,0.1,1.74,0.254,2.618,0.412
	c1.07,0.146,2.11,0.437,3.164,0.646l0.32,0.107c0.037-0.063,0.079-0.112,0.134-0.166c1.656-1.569,3.563-1.319,5.132-1.361
	c0.15-0.013,0.117,0.333-0.033,0.37c-0.674,0.163-1.356,0.15-2.044,0.508c-0.479,0.246-1.095,0.649-1.665,1.07
	c0.408,0.104,0.812,0.217,1.216,0.329c0.495,0.162,0.983,0.35,1.457,0.537c0.479,0.175,0.966,0.32,1.432,0.466
	c0.841,0.32,1.636,0.683,2.406,1.028c0.274-0.375,0.666-0.737,0.879-0.887c1.248-0.87,2.697-0.221,3.729,0.491
	c0.029,0.017,0.024,0.083-0.009,0.1c-0.175,0.092-2.094,0.45-3.496,0.749c0.541,0.263,1.061,0.517,1.544,0.745
	c0.732,0.371,1.424,0.695,2.023,1.033c0.595,0.345,1.115,0.641,1.548,0.882c0.862,0.504,1.357,0.82,1.357,0.82
	s-0.554-0.092-1.498-0.287c-0.463-0.112-1.037-0.241-1.683-0.392c-0.641-0.162-1.373-0.311-2.16-0.528
	c-0.795-0.179-1.623-0.462-2.526-0.633c-0.896-0.225-1.836-0.491-2.794-0.774c-0.683-0.166-1.39-0.291-2.077-0.52
	c0.051,0.129,0.096,0.25,0.142,0.388c0.188,0.607,0.362,1.22,0.579,1.798c0.466,1.232,1.057,2.485,1.994,3.31
	c0.074,0.066,0,0.229-0.092,0.195c-0.899-0.362-2.14-1.086-3.022-2.131c-0.866-1.091-1.391-2.443-1.012-3.946
	c-0.857-0.225-1.739-0.388-2.589-0.646c-1.054-0.25-2.077-0.578-3.131-0.762c-1.057-0.179-2.044-0.545-3.06-0.703
	c-0.762-0.171-1.507-0.313-2.239-0.438c2.764,1.994,2.248,5.957,4.417,8.359c2.543,2.984,6.864,4.462,11.114,4.687
	c1.111,0.021,2.193-0.029,3.243-0.137c0.516-0.059,1.032-0.112,1.536-0.209c0.503-0.104,0.999-0.22,1.485-0.345
	c0.971-0.254,1.915-0.546,2.831-0.862c0.916-0.32,1.79-0.736,2.651-1.124c2.353-1.036,4.838-1.973,6.952-3.371
	C387.76,219.057,387.46,218.665,386.915,218.369z M458.989,191.527c-0.108-0.153-0.213-0.324-0.333-0.508
	c-0.142-0.17-0.296-0.35-0.45-0.549c-0.17-0.199-0.354-0.416-0.554-0.645c-0.199-0.226-0.436-0.426-0.686-0.662
	c-0.979-0.958-2.368-1.891-4.079-2.735c-1.724-0.854-3.738-1.461-5.911-1.915c-4.367-0.891-9.2-0.891-13.691-0.429
	c-1.907,0.208-3.747,0.495-5.495,0.849c2.693-4.491,4.43-9.574,4.824-14.744c0.434-5.383-0.536-10.823-2.73-15.448
	c-1.078-2.323-2.41-4.454-3.904-6.373c-1.512-1.902-3.185-3.576-4.912-5.062c-0.903-0.695-1.761-1.432-2.677-2.036
	c-0.454-0.304-0.916-0.616-1.365-0.92c-0.467-0.283-0.933-0.566-1.403-0.849c-1.864-1.095-3.709-1.915-5.557-2.702
	c-3.751-1.498-7.681-2.51-11.682-2.681c-2.006-0.075-4.013,0.071-5.956,0.438c-1.944,0.416-3.821,1.036-5.525,1.898
	c-3.405,1.744-6.04,4.313-7.76,6.948c-1.756,2.652-2.747,5.328-3.317,7.759c-0.578,2.444-0.736,4.675-0.736,6.64
	c0.028,3.942,0.724,6.848,1.402,8.733c0.687,1.894,1.374,2.793,1.861,2.71c0.525-0.075,0.845-1.132,1.169-2.989
	c0.325-1.853,0.675-4.542,1.549-7.726c0.441-1.578,1.008-3.28,1.832-4.975c0.808-1.686,1.898-3.338,3.247-4.725
	c1.344-1.407,2.997-2.456,4.861-3.081c0.937-0.3,1.944-0.458,3.006-0.541c1.065-0.042,2.198,0.008,3.393,0.196
	c2.377,0.408,4.958,1.319,7.602,2.66c1.303,0.7,2.668,1.457,3.875,2.29c0.304,0.212,0.596,0.425,0.896,0.637
	c0.291,0.229,0.582,0.462,0.874,0.699c0.612,0.445,1.12,0.982,1.694,1.465c4.316,4.08,6.894,9.707,6.277,15.843
	c-0.296,3.043-1.336,6.178-3.114,9.066c-1.794,2.894-4.283,5.524-7.326,7.727l-1.224,0.837l-1.266,0.799l-1.273,0.816
	c-0.434,0.262-0.875,0.47-1.315,0.711l-1.308,0.729c-0.449,0.238-0.92,0.425-1.378,0.646l-1.398,0.657
	c-0.458,0.213-0.962,0.379-1.444,0.575c-3.871,1.557-8.126,2.739-12.622,3.593c-9.017,1.702-18.512,1.919-27.558,1.049
	c-1.132-0.112-2.28-0.204-3.38-0.358c-1.095-0.162-2.193-0.291-3.271-0.487c-1.087-0.212-2.156-0.403-3.227-0.641
	c-1.062-0.27-2.118-0.508-3.168-0.791c-4.188-1.133-8.221-2.547-12.126-4.047c-2.552-0.99-5.041-2.023-7.501-3.047
	c0.354,0.096,0.695,0.188,1.045,0.279c3.48,0.895,6.669,1.461,9.94,1.682c1.628,0.112,3.289,0.121,5.028-0.063
	c1.732-0.175,3.556-0.528,5.453-1.332c1.882-0.778,3.876-2.168,5.362-4.3c0.204-0.245,0.337-0.542,0.508-0.815
	c0.149-0.292,0.346-0.575,0.466-0.879c0.254-0.604,0.55-1.199,0.704-1.902c0.091-0.346,0.183-0.695,0.27-1.049
	c0.058-0.362,0.096-0.732,0.137-1.111c0.108-0.754,0.025-1.524-0.017-2.315c-0.241-2.052-1.032-3.98-2.127-5.595
	c-1.095-1.624-2.48-2.985-4.046-4.004c-1.561-1.024-3.276-1.77-5.063-2.182c-1.79-0.391-3.638-0.445-5.411-0.175
	c0.092-0.008,0.191-0.012,0.283-0.029c-1.761,0.187-3.414,0.683-4.862,1.444c-0.725,0.379-1.407,0.824-2.023,1.332
	c-0.633,0.504-1.157,1.024-1.698,1.707c-0.258,0.304-0.566,0.758-0.804,1.165c-0.229,0.425-0.458,0.833-0.607,1.262
	c-0.313,0.857-0.445,1.711-0.416,2.514c0.07,1.615,0.854,2.989,1.89,3.775c1.003,0.837,2.202,1.162,3.118,1.303
	c0.228,0.025,0.445,0.042,0.653,0.055c0.204,0.008,0.362-0.017,0.533-0.025c0.324-0.021,0.62-0.074,0.878-0.141
	c1.032-0.25,1.54-0.691,1.562-1.129c0.028-0.454-0.454-0.882-1.195-1.395c-0.188-0.121-0.383-0.258-0.591-0.4
	c-0.088-0.075-0.225-0.142-0.3-0.216c-0.079-0.067-0.15-0.138-0.233-0.204c-0.283-0.287-0.458-0.57-0.558-0.891
	c-0.096-0.304-0.033-0.662,0.142-0.912c0.092-0.133,0.208-0.229,0.308-0.304c0.059-0.038,0.117-0.066,0.167-0.087
	c0.066-0.033,0.083-0.017,0.208-0.104c0.191-0.138,0.525-0.362,0.841-0.524c0.316-0.171,0.679-0.316,1.054-0.45
	c0.749-0.262,1.577-0.396,2.418-0.412l0.275-0.029c0.845-0.038,1.723,0.029,2.639,0.237c0.912,0.237,1.832,0.633,2.697,1.149
	c1.744,1.04,3.105,2.672,3.651,4.383c0.063,0.333,0.204,0.67,0.191,1.004c0.013,0.17,0.029,0.341,0.041,0.503
	c-0.017,0.175-0.037,0.342-0.041,0.513c0.004,0.341-0.117,0.699-0.175,1.057c-0.033,0.18-0.112,0.32-0.163,0.492
	c-0.066,0.153-0.087,0.341-0.179,0.482c-0.558,1.215-1.47,2.252-2.668,3.043c-1.187,0.791-2.565,1.365-3.98,1.781
	c-1.416,0.425-2.881,0.695-4.384,0.861c-3.01,0.338-6.14,0.316-9.629-0.091c-1.744-0.204-3.584-0.509-5.536-0.954
	c-0.341-0.087-0.699-0.174-1.049-0.262c-3.181-1.369-6.294-2.705-9.341-3.946c-3.547-1.44-6.877-2.735-10.35-3.909
	c-3.488-1.053-6.96-1.848-10.365-1.931c-0.424-0.021-0.841-0.066-1.257-0.066c-0.42,0.008-0.841,0.029-1.249,0.042
	c-0.832,0.042-1.656,0.025-2.447,0.129c-0.8,0.108-1.59,0.217-2.373,0.325l-0.574,0.087l-0.57,0.133
	c-0.37,0.087-0.749,0.179-1.111,0.267c-1.507,0.299-2.872,0.841-4.222,1.29c-0.678,0.229-1.299,0.549-1.931,0.812
	c-0.621,0.292-1.258,0.528-1.832,0.849c-4.7,2.402-8.234,5.166-11.011,7.498c-2.734,2.373-4.725,4.342-6.04,5.707
	c-1.299,1.377-1.99,2.102-1.99,2.102s0.825-0.566,2.386-1.64c1.544-1.078,3.842-2.655,6.814-4.608
	c2.989-1.902,6.686-4.184,11.206-6.102c0.554-0.267,1.157-0.437,1.74-0.666c0.591-0.208,1.183-0.466,1.807-0.637
	c1.253-0.329,2.522-0.767,3.863-0.962c0.337-0.066,0.674-0.133,1.016-0.191l0.504-0.108l0.52-0.05
	c0.7-0.066,1.399-0.137,2.115-0.208c0.716-0.071,1.441-0.024,2.173-0.046c0.366,0,0.732-0.004,1.107-0.008
	c0.366,0.016,0.741,0.066,1.119,0.1c3.015,0.142,6.115,0.924,9.296,1.91c3.135,1.111,6.586,2.461,10.003,3.871
	c6.906,2.86,14.216,6.232,22.171,9.396c3.976,1.586,8.13,3.084,12.476,4.366c1.091,0.313,2.185,0.616,3.297,0.933
	c1.112,0.283,2.228,0.574,3.352,0.861c1.124,0.283,2.277,0.508,3.422,0.778c1.132,0.242,2.272,0.479,3.417,0.721
	c4.571,0.94,9.259,1.877,14.129,2.647c4.862,0.749,9.907,1.323,15.136,1.349c5.232,0.033,10.544-0.512,15.715-1.902
	c0.641-0.184,1.299-0.325,1.935-0.541c0.637-0.225,1.27-0.445,1.906-0.662c0.629-0.233,1.266-0.437,1.882-0.699
	c0.62-0.279,1.236-0.563,1.848-0.837c0.608-0.283,1.228-0.55,1.819-0.854c0.575-0.328,1.149-0.653,1.724-0.977
	c0.574-0.329,1.141-0.654,1.711-0.991c0.558-0.354,1.115-0.708,1.674-1.065c1.827-1.24,3.567-2.631,5.186-4.15
	c0.396-0.15,0.795-0.3,1.182-0.45c0.479-0.178,0.938-0.361,1.407-0.537c0.475-0.166,0.945-0.328,1.416-0.49
	c0.932-0.316,1.852-0.633,2.78-0.883c0.92-0.275,1.819-0.537,2.714-0.736c0.891-0.2,1.749-0.426,2.606-0.574
	c0.849-0.143,1.665-0.283,2.456-0.396c1.582-0.191,3.043-0.313,4.32-0.32c0.646-0.008,1.249,0.017,1.795,0.037
	c0.549,0.013,1.049,0.047,1.502,0.113c0.892,0.096,1.591,0.236,2.049,0.332c0.47,0.101,0.716,0.15,0.716,0.15
	s-0.263,0.046-0.749,0.129c-0.487,0.059-1.186,0.204-2.069,0.362c-0.441,0.083-0.92,0.204-1.44,0.329
	c-0.528,0.112-1.095,0.262-1.686,0.424c-0.604,0.143-1.229,0.334-1.891,0.541c-0.657,0.209-1.344,0.412-2.052,0.666
	c-1.424,0.488-2.943,1.041-4.517,1.683c-0.791,0.316-1.599,0.649-2.41,1.007c-0.416,0.175-0.824,0.355-1.236,0.533
	c-0.425,0.188-0.841,0.375-1.258,0.566c-0.424,0.188-0.849,0.37-1.27,0.565c-0.424,0.2-0.857,0.404-1.281,0.6
	c-0.866,0.404-1.732,0.808-2.619,1.216c-0.874,0.416-1.769,0.837-2.647,1.249l-2.706,1.249c-1.835,0.795-3.684,1.607-5.636,2.276
	c-0.716,0.267-1.457,0.475-2.211,0.704c1.77,1.132,4.48,2.193,7.822,2.484c3.339,0.305,7.264-0.129,11.406-1.669
	c3.338-1.227,6.806-3.135,10.161-5.087c3.359-1.936,6.635-3.934,9.678-5.278c3.039-1.395,5.929-2.077,8.209-1.974
	c0.279,0.014,0.563,0.005,0.82,0.033c0.258,0.034,0.504,0.067,0.729,0.101c0.237,0.033,0.45,0.063,0.649,0.101
	c0.196,0.041,0.371,0.087,0.533,0.129c0.67,0.183,1.032,0.27,1.032,0.27S459.363,192.127,458.989,191.527z M291.104,211.102
	c0,0-0.478-0.579-1.286-1.507c-0.815-0.929-1.944-2.206-3.334-3.589c-1.387-1.378-3.031-2.855-4.896-4.112
	c-1.849-1.262-3.951-2.281-5.937-2.739c-3.006-0.732-5.528-0.212-7.201,0.596c-1.698,0.795-2.648,1.927-3.135,2.589
	c0.366-0.112,0.754-0.217,1.137-0.313c0.258-0.063,0.512-0.125,0.766-0.195l0.787-0.125c0.528-0.066,1.069-0.167,1.61-0.179
	l0.388-0.013c0.112-0.108,0.254-0.217,0.433-0.346c0.104-0.079,0.237-0.162,0.379-0.245c0.133-0.088,0.291-0.154,0.449-0.229
	c0.171-0.063,0.342-0.133,0.533-0.188c0.188-0.058,0.379-0.112,0.583-0.153c0.195-0.046,0.407-0.075,0.607-0.092
	c0.191-0.017,0.399-0.009,0.591-0.017c0.191,0,0.384,0.024,0.559,0.037c0.179,0.017,0.341,0.046,0.486,0.071
	c0.163,0.028,0.296,0.058,0.408,0.096c0.112,0.037,0.217,0.07,0.3,0.091c0.162,0.059,0.258,0.088,0.258,0.088
	s-0.096-0.013-0.267-0.029c-0.083-0.008-0.186-0.017-0.3-0.033c-0.12-0.013-0.245-0.013-0.387-0.004
	c-0.142,0.008-0.291,0.008-0.441,0.037c-0.149,0.02-0.308,0.029-0.47,0.071c-0.154,0.041-0.313,0.066-0.463,0.12
	c-0.149,0.055-0.3,0.105-0.433,0.171c-0.142,0.059-0.267,0.145-0.387,0.221c-0.125,0.07-0.221,0.166-0.329,0.241
	c-0.042,0.042-0.083,0.075-0.121,0.112c0.3,0.025,0.6,0.029,0.891,0.083c0.272,0.034,0.542,0.071,0.804,0.108
	c0.267,0.046,0.533,0.096,0.791,0.142c0.263,0.066,0.517,0.129,0.771,0.184c0.254,0.063,0.503,0.137,0.749,0.204
	c0.495,0.149,0.97,0.316,1.428,0.491c0.471,0.166,0.896,0.366,1.315,0.565c0.142,0.067,0.283,0.138,0.433,0.209
	c0.038-0.013,0.084-0.013,0.125-0.025c0.259-0.033,0.558-0.046,0.883-0.033c0.324,0.017,0.674,0.059,1.016,0.129
	c0.167,0.042,0.333,0.087,0.5,0.133c0.158,0.055,0.316,0.105,0.466,0.15c0.149,0.066,0.291,0.12,0.433,0.171
	c0.134,0.058,0.259,0.124,0.375,0.179c0.217,0.104,0.392,0.217,0.516,0.283c0.125,0.07,0.196,0.108,0.196,0.108
	s-0.079-0.021-0.213-0.067c-0.141-0.041-0.324-0.116-0.558-0.17c-0.112-0.025-0.241-0.059-0.366-0.088
	c-0.133-0.024-0.274-0.046-0.416-0.066c-0.15-0.017-0.292-0.033-0.445-0.046c-0.142-0.017-0.279-0.009-0.429-0.02
	c-0.275,0-0.546,0.029-0.783,0.074c0.18,0.108,0.358,0.209,0.529,0.316c0.657,0.445,1.248,0.837,1.731,1.241
	c0.487,0.4,0.903,0.733,1.224,1.045c0.316,0.304,0.558,0.554,0.725,0.716c0.162,0.171,0.245,0.262,0.245,0.262
	s-0.116-0.058-0.337-0.153c-0.217-0.108-0.545-0.259-0.945-0.441c-0.395-0.196-0.891-0.408-1.456-0.666
	c-0.275-0.134-0.575-0.25-0.896-0.379c-0.313-0.134-0.641-0.263-0.986-0.404c-0.708-0.249-1.44-0.549-2.252-0.775
	c-0.404-0.12-0.813-0.258-1.245-0.345c-0.208-0.059-0.425-0.108-0.637-0.163c-0.221-0.05-0.438-0.1-0.662-0.145l-0.47-0.083
	c0.021,0.063,0.028,0.129,0.045,0.204c0.038,0.087,0.067,0.199,0.134,0.304c0.041,0.112,0.125,0.221,0.199,0.342
	c0.092,0.12,0.184,0.245,0.292,0.366c0.116,0.12,0.225,0.254,0.357,0.366l0.2,0.171c0.071,0.058,0.149,0.104,0.225,0.158
	c0.138,0.1,0.283,0.22,0.434,0.312c0.158,0.096,0.299,0.208,0.44,0.279c0.15,0.083,0.283,0.158,0.412,0.225
	c0.267,0.142,0.487,0.263,0.642,0.337c0.162,0.079,0.245,0.125,0.245,0.125s-0.096-0.024-0.262-0.066
	c-0.171-0.037-0.416-0.1-0.712-0.179c-0.15-0.042-0.304-0.088-0.478-0.129c-0.163-0.051-0.338-0.121-0.521-0.184
	c-0.184-0.066-0.371-0.142-0.558-0.221c-0.096-0.042-0.191-0.07-0.283-0.121l-0.283-0.149c-0.2-0.088-0.379-0.217-0.566-0.329
	c-0.175-0.108-0.341-0.229-0.508-0.366c-0.158-0.133-0.316-0.262-0.441-0.403c-0.142-0.138-0.249-0.292-0.366-0.412
	c-0.083-0.138-0.183-0.259-0.258-0.379c-0.066-0.121-0.121-0.229-0.167-0.316c-0.024-0.075-0.041-0.134-0.066-0.184l-0.416-0.046
	c-0.466-0.063-0.937-0.041-1.398-0.058l-0.708-0.009l-0.699,0.046c-0.933,0.02-1.856,0.184-2.756,0.316
	c-0.324,0.07-0.649,0.149-0.974,0.229c0.366,0.316,0.79,0.638,1.273,0.987c0.487,0.366,1.028,0.695,1.623,1.028
	c1.199,0.67,2.568,1.265,4.354,1.682c1.432,0.328,3.168,0.595,5.054,0.933c1.961,0.341,3.976,0.69,5.786,1.007
	c1.865,0.316,3.563,0.587,4.787,0.754C290.355,211.035,291.104,211.102,291.104,211.102z M245.235,191.861
	c1.311,1.377,1.989,2.102,1.989,2.102s-0.819-0.566-2.385-1.64c-1.549-1.078-3.847-2.655-6.811-4.608
	c-2.997-1.902-6.686-4.184-11.206-6.102c-0.558-0.267-1.157-0.437-1.74-0.666c-0.6-0.208-1.186-0.466-1.814-0.637
	c-1.245-0.329-2.515-0.767-3.863-0.962c-0.333-0.066-0.67-0.133-1.016-0.191l-0.504-0.108l-0.521-0.05
	c-0.699-0.066-1.398-0.137-2.11-0.208c-0.716-0.071-1.44-0.024-2.177-0.046c-0.358,0-0.733-0.004-1.104-0.008
	c-0.37,0.016-0.741,0.066-1.12,0.1c-3.014,0.142-6.119,0.924-9.299,1.91c-3.122,1.111-6.582,2.461-10.008,3.871
	c-6.901,2.86-14.211,6.232-22.162,9.396c-3.979,1.586-8.134,3.084-12.48,4.366c-1.082,0.313-2.181,0.616-3.284,0.933
	c-1.115,0.283-2.227,0.574-3.351,0.861c-1.128,0.283-2.277,0.508-3.431,0.778c-1.128,0.242-2.269,0.479-3.417,0.721
	c-4.567,0.94-9.263,1.877-14.125,2.647c-4.861,0.749-9.907,1.323-15.14,1.349c-5.232,0.033-10.544-0.512-15.715-1.902
	c-0.641-0.184-1.29-0.325-1.931-0.541c-0.638-0.225-1.271-0.445-1.907-0.662c-0.475-0.179-0.957-0.346-1.432-0.524
	c-0.612,0.566-1.507,1.262-2.689,1.869c-1.273,0.674-2.855,1.253-4.737,1.619c-3.713,0.729-8.45,0.495-13.475-1.378
	c-3.351-1.227-6.806-3.135-10.17-5.087c-3.359-1.936-6.635-3.934-9.674-5.278c-3.039-1.395-5.932-2.077-8.209-1.974
	c-0.283,0.014-0.566,0.005-0.82,0.029c-0.262,0.038-0.499,0.071-0.729,0.105c-0.233,0.033-0.449,0.063-0.653,0.092
	c-0.195,0.05-0.37,0.096-0.528,0.138c-0.666,0.183-1.037,0.27-1.037,0.27s0.188-0.316,0.567-0.924
	c0.096-0.146,0.204-0.316,0.329-0.5c0.142-0.17,0.283-0.354,0.449-0.549c0.167-0.199,0.358-0.416,0.55-0.645
	c0.199-0.226,0.441-0.434,0.687-0.662c0.991-0.958,2.377-1.891,4.092-2.735c1.715-0.854,3.73-1.461,5.903-1.915
	c4.371-0.891,9.199-0.891,13.691-0.429c1.902,0.208,3.746,0.495,5.49,0.849c-2.693-4.491-4.425-9.574-4.824-14.744
	c-0.434-5.383,0.541-10.823,2.731-15.448c1.078-2.323,2.41-4.454,3.909-6.373c1.507-1.902,3.18-3.576,4.912-5.062
	c0.891-0.695,1.756-1.432,2.672-2.036c0.462-0.304,0.916-0.616,1.365-0.92c0.467-0.283,0.941-0.566,1.407-0.849
	c1.873-1.095,3.705-1.915,5.554-2.702c3.746-1.498,7.684-2.51,11.688-2.681c1.998-0.075,4.013,0.071,5.953,0.438
	c1.939,0.416,3.813,1.036,5.52,1.898c3.413,1.744,6.044,4.313,7.76,6.948c1.761,2.652,2.747,5.328,3.33,7.759
	c0.566,2.444,0.725,4.675,0.725,6.64c-0.025,3.942-0.725,6.848-1.403,8.733c-0.691,1.894-1.361,2.793-1.856,2.71
	c-0.521-0.075-0.85-1.132-1.178-2.989c-0.321-1.853-0.671-4.542-1.545-7.726c-0.441-1.578-1.008-3.28-1.827-4.975
	c-0.816-1.686-1.891-3.338-3.256-4.725c-1.34-1.407-2.993-2.456-4.85-3.081c-0.944-0.3-1.952-0.458-3.01-0.541
	c-1.073-0.042-2.206,0.008-3.393,0.196c-2.381,0.408-4.962,1.319-7.597,2.651c-1.308,0.708-2.673,1.465-3.88,2.298
	c-0.3,0.212-0.6,0.425-0.899,0.637c-0.291,0.229-0.582,0.462-0.874,0.699c-0.608,0.445-1.124,0.982-1.69,1.465
	c-4.317,4.08-6.894,9.707-6.277,15.843c0.291,3.043,1.332,6.178,3.113,9.066c1.798,2.894,4.279,5.524,7.326,7.727l1.225,0.837
	l1.27,0.799l1.273,0.816c0.425,0.262,0.87,0.47,1.307,0.711l1.32,0.729c0.441,0.238,0.916,0.425,1.373,0.646l1.391,0.657
	c0.467,0.213,0.962,0.379,1.449,0.575c3.871,1.557,8.117,2.739,12.621,3.593c9.013,1.702,18.508,1.919,27.562,1.049
	c1.128-0.112,2.277-0.204,3.368-0.358c1.103-0.162,2.197-0.291,3.28-0.487c1.082-0.212,2.156-0.403,3.226-0.641
	c1.062-0.27,2.119-0.508,3.164-0.791c4.188-1.133,8.217-2.547,12.122-4.047c2.552-0.99,5.058-2.023,7.505-3.051
	c-0.345,0.096-0.699,0.191-1.045,0.283c-3.483,0.895-6.673,1.461-9.932,1.682c-1.637,0.112-3.293,0.117-5.033-0.063
	c-1.735-0.179-3.555-0.528-5.453-1.332c-1.886-0.782-3.871-2.168-5.357-4.3c-0.208-0.245-0.346-0.542-0.512-0.815
	c-0.154-0.292-0.346-0.575-0.471-0.879c-0.246-0.604-0.537-1.199-0.703-1.902c-0.084-0.346-0.175-0.695-0.267-1.049
	c-0.05-0.362-0.088-0.732-0.134-1.111c-0.116-0.754-0.024-1.524,0.009-2.315c0.241-2.052,1.032-3.98,2.131-5.595
	c1.095-1.624,2.481-2.985,4.047-4.004c1.557-1.024,3.271-1.77,5.054-2.182c1.794-0.391,3.642-0.445,5.407-0.175
	c-0.088-0.008-0.18-0.012-0.27-0.029c1.757,0.187,3.413,0.683,4.857,1.444c0.725,0.379,1.403,0.824,2.023,1.332
	c0.629,0.504,1.157,1.024,1.698,1.707c0.254,0.304,0.563,0.758,0.804,1.165c0.229,0.425,0.458,0.833,0.607,1.262
	c0.316,0.857,0.441,1.711,0.416,2.514c-0.07,1.615-0.857,2.985-1.89,3.775c-1.007,0.828-2.202,1.162-3.122,1.303
	c-0.228,0.025-0.441,0.042-0.649,0.055c-0.208,0.008-0.366-0.021-0.532-0.025c-0.325-0.029-0.616-0.074-0.879-0.146
	c-1.028-0.249-1.536-0.686-1.561-1.124c-0.025-0.458,0.449-0.887,1.191-1.395c0.191-0.121,0.387-0.258,0.591-0.4
	c0.1-0.075,0.225-0.142,0.308-0.216c0.075-0.067,0.15-0.138,0.23-0.212c0.278-0.279,0.458-0.562,0.554-0.883
	c0.1-0.304,0.041-0.662-0.142-0.912c-0.088-0.133-0.2-0.229-0.309-0.304c-0.054-0.033-0.116-0.066-0.166-0.087
	c-0.066-0.033-0.079-0.017-0.204-0.104c-0.191-0.138-0.524-0.362-0.841-0.524c-0.32-0.171-0.679-0.316-1.053-0.45
	c-0.75-0.262-1.574-0.396-2.419-0.412l-0.279-0.029c-0.832-0.038-1.719,0.029-2.631,0.237c-0.915,0.237-1.84,0.633-2.697,1.149
	c-1.748,1.04-3.105,2.672-3.654,4.383c-0.051,0.333-0.192,0.67-0.184,1.004c-0.021,0.17-0.025,0.341-0.046,0.503
	c0.02,0.175,0.037,0.342,0.046,0.513c-0.009,0.341,0.116,0.699,0.175,1.053c0.025,0.184,0.116,0.324,0.158,0.496
	c0.063,0.153,0.092,0.341,0.175,0.482c0.558,1.215,1.47,2.252,2.668,3.043c1.186,0.791,2.568,1.365,3.979,1.781
	c1.412,0.425,2.89,0.695,4.384,0.861c3.014,0.338,6.145,0.316,9.633-0.091c1.74-0.204,3.576-0.509,5.528-0.958
	c0.35-0.083,0.707-0.179,1.065-0.266c3.176-1.361,6.286-2.697,9.333-3.939c3.542-1.44,6.868-2.735,10.349-3.909
	c3.483-1.053,6.956-1.848,10.357-1.931c0.425-0.021,0.85-0.066,1.266-0.066c0.421,0.008,0.833,0.029,1.249,0.042
	c0.828,0.042,1.648,0.025,2.447,0.129c0.8,0.108,1.591,0.217,2.364,0.325l0.583,0.087l0.566,0.133
	c0.375,0.087,0.749,0.179,1.124,0.267c1.49,0.299,2.864,0.841,4.208,1.29c0.679,0.229,1.299,0.549,1.932,0.812
	c0.62,0.292,1.253,0.528,1.828,0.849c4.703,2.402,8.242,5.166,11.015,7.498C241.934,188.527,243.92,190.496,245.235,191.861z
	 M92.949,201.951c-0.075-0.033-0.15-0.058-0.229-0.087c-0.62-0.279-1.228-0.563-1.844-0.837c-0.607-0.283-1.232-0.55-1.819-0.854
	c-0.578-0.328-1.153-0.653-1.728-0.977c-0.566-0.329-1.141-0.654-1.707-0.991c-0.558-0.354-1.111-0.708-1.669-1.065
	c-0.429-0.296-0.854-0.6-1.278-0.912c-0.232-0.046-0.462-0.091-0.69-0.149c-0.937-0.221-1.873-0.433-2.806-0.688
	c-0.933-0.236-1.856-0.482-2.772-0.74c-0.449-0.121-0.903-0.25-1.358-0.375c-0.449-0.125-0.895-0.262-1.34-0.396
	c-0.445-0.12-0.887-0.245-1.332-0.37c-0.434-0.129-0.866-0.263-1.299-0.387c-0.857-0.254-1.694-0.5-2.515-0.733
	c-1.652-0.466-3.21-0.929-4.679-1.299c-0.741-0.175-1.428-0.388-2.11-0.528c-0.671-0.175-1.315-0.309-1.928-0.441
	c-0.607-0.133-1.183-0.246-1.715-0.338c-0.533-0.096-1.012-0.191-1.466-0.24c-0.887-0.15-1.606-0.217-2.094-0.254
	c-0.487-0.038-0.749-0.055-0.749-0.055s0.221,0.104,0.649,0.313c0.429,0.191,1.045,0.508,1.819,0.898
	c0.391,0.188,0.828,0.404,1.294,0.642c0.471,0.233,0.979,0.47,1.52,0.762c1.091,0.532,2.323,1.149,3.68,1.823
	c0.688,0.316,1.399,0.67,2.136,1.028c0.737,0.362,1.52,0.699,2.318,1.074c0.8,0.387,1.641,0.72,2.498,1.09
	c0.85,0.388,1.748,0.741,2.656,1.096c0.453,0.179,0.915,0.357,1.382,0.536c0.475,0.175,0.949,0.342,1.428,0.513
	c0.479,0.166,0.97,0.337,1.453,0.508c0.495,0.154,0.99,0.308,1.49,0.458c1.998,0.628,4.096,1.132,6.223,1.54
	c0.521,0.104,1.062,0.175,1.603,0.25c0.533,0.066,1.074,0.142,1.624,0.195c0.541,0.05,1.074,0.096,1.623,0.112
	c0.542,0.021,1.083,0.037,1.624,0.021C91.55,202.085,92.262,202.019,92.949,201.951z M238.57,194.759
	c-0.695-0.48-1.481-0.991-2.381-1.482c-0.891-0.508-1.873-1.058-2.968-1.548c-0.546-0.246-1.111-0.504-1.694-0.775
	c-0.591-0.25-1.216-0.475-1.853-0.72c-1.27-0.517-2.66-0.92-4.121-1.352c-0.721-0.233-1.494-0.375-2.269-0.566
	c-0.783-0.175-1.574-0.379-2.402-0.491c-0.828-0.129-1.669-0.263-2.526-0.399c-0.866-0.088-1.749-0.167-2.652-0.25
	c-3.605-0.237-7.505-0.133-11.552,0.549c-4.059,0.662-8.167,2.027-12.409,3.664c-4.466,1.736-9.02,4.699-12.517,8.929
	c-3.488,4.222-5.599,9.5-5.836,14.928c-0.15,2.706,0.074,5.458,0.749,8.139c0.67,2.685,1.819,5.299,3.418,7.605
	c1.594,2.306,3.65,4.267,5.856,5.715c0.566,0.346,1.116,0.729,1.69,1.008c0.57,0.287,1.148,0.566,1.715,0.828
	c1.153,0.438,2.298,0.895,3.422,1.137c0.566,0.12,1.119,0.283,1.673,0.366c0.541,0.075,1.091,0.154,1.624,0.225
	c0.532,0.088,1.065,0.112,1.586,0.125c0.521,0.025,1.036,0.037,1.553,0.054c2.14-0.058,4.208-0.271,6.269-0.957
	c0.25-0.088,0.5-0.162,0.75-0.241c0.249-0.092,0.508-0.208,0.753-0.313c0.495-0.233,0.979-0.438,1.449-0.695
	c0.47-0.283,0.92-0.57,1.365-0.857c0.441-0.271,0.845-0.666,1.231-0.995c0.196-0.179,0.388-0.346,0.579-0.52
	c0.184-0.183,0.35-0.378,0.508-0.574c0.333-0.391,0.666-0.758,0.936-1.161c0.521-0.824,1.008-1.615,1.299-2.436
	c0.687-1.599,0.866-3.117,0.953-4.433c0-0.649-0.029-1.271-0.066-1.845c-0.075-0.566-0.171-1.099-0.267-1.586
	c-0.462-1.948-1.148-3.28-1.798-4.108c-0.666-0.824-1.241-1.161-1.749-1.049c-0.491,0.112-0.907,0.666-1.253,1.548
	c-0.357,0.879-0.716,2.103-1.22,3.451c-0.495,1.336-1.277,2.798-2.306,3.643c-0.225,0.241-0.524,0.375-0.766,0.541
	c-0.125,0.079-0.296,0.112-0.417,0.175c-0.074,0.033-0.129,0.063-0.204,0.092l-0.225,0.059c-0.162,0.025-0.262,0.1-0.445,0.112
	c-0.171,0.021-0.329,0.046-0.482,0.083c-0.175,0.021-0.375,0.021-0.55,0.033c-0.096,0.013-0.175,0.033-0.279,0.033l-0.32-0.008
	c-0.808,0.033-1.865-0.13-2.922-0.313c-0.292-0.066-0.579-0.134-0.874-0.208c-0.292-0.059-0.583-0.129-0.866-0.229
	c-0.283-0.091-0.566-0.183-0.857-0.271c-0.283-0.092-0.533-0.225-0.804-0.329c-0.274-0.096-0.545-0.199-0.778-0.345
	c-0.245-0.129-0.491-0.259-0.736-0.383c-0.226-0.15-0.446-0.305-0.679-0.441c-0.233-0.134-0.408-0.325-0.624-0.475
	c-0.808-0.662-1.49-1.416-2.086-2.331c-0.596-0.916-1.082-2.003-1.436-3.268c-0.35-1.265-0.554-2.701-0.574-4.229
	c-0.017-1.525,0.075-3.144,0.263-4.829c0.183-1.687,0.479-3.455,0.961-5.249c0.929-3.576,2.798-7.123,5.886-9.25
	c3.264-2.34,7.044-3.493,10.648-4.188c3.622-0.686,7.169-0.795,10.479-0.611c3.309,0.162,6.373,0.762,9.153,1.324
	c1.391,0.324,2.719,0.604,3.963,0.966c0.625,0.166,1.232,0.328,1.815,0.482c0.583,0.179,1.148,0.346,1.698,0.508
	c1.115,0.3,2.123,0.645,3.076,0.936c0.471,0.142,0.929,0.279,1.361,0.412c0.433,0.134,0.841,0.275,1.232,0.399
	c1.586,0.487,2.813,0.866,3.654,1.124c0.85,0.25,1.308,0.358,1.308,0.358s-0.337-0.325-1.016-0.899
	C240.993,196.52,239.977,195.683,238.57,194.759z M246.488,185.671c-0.325-0.612-0.683-1.352-1.224-2.127
	c-0.533-0.782-1.157-1.673-1.882-2.664c-0.766-0.949-1.698-1.948-2.73-3.072c-0.496-0.579-1.124-1.065-1.744-1.64
	c-0.621-0.55-1.278-1.124-1.977-1.72c-0.741-0.537-1.523-1.095-2.331-1.665c-0.4-0.283-0.816-0.575-1.241-0.874
	c-0.449-0.258-0.898-0.525-1.369-0.795c-0.937-0.52-1.882-1.111-2.914-1.607c-1.036-0.47-2.094-0.961-3.185-1.457
	c-1.091-0.475-2.231-0.837-3.372-1.262c-1.148-0.424-2.281-0.803-3.439-1.161c-4.62-1.432-9.191-2.635-12.971-4.429
	c-2.272-1.028-4.188-2.323-5.703-3.659c0.5,0.133,1.02,0.208,1.553,0.208c3.418,0,6.182-2.773,6.182-6.186
	c0-3.41-2.764-6.173-6.182-6.173c-3.264,0-5.932,2.539-6.152,5.753c-0.013-0.021-0.02-0.046-0.02-0.046s0.008,0.025,0.02,0.071
	c-0.013,0.137-0.02,0.266-0.02,0.395c0,1.794,0.77,3.409,1.989,4.533c1.382,2.318,3.826,5.033,7.201,7.131
	c3.755,2.443,8.401,4.279,12.768,6.078c1.087,0.454,2.186,0.924,3.227,1.403c1.04,0.475,2.106,0.895,3.097,1.395
	c0.982,0.503,1.957,0.999,2.897,1.482c0.933,0.487,1.798,1.049,2.664,1.528c0.433,0.245,0.857,0.487,1.273,0.724
	c0.4,0.258,0.783,0.521,1.166,0.775c0.771,0.499,1.507,0.969,2.223,1.419c0.688,0.495,1.341,0.962,1.974,1.419
	c0.62,0.459,1.266,0.838,1.798,1.303c1.104,0.883,2.148,1.645,3.056,2.361c0.883,0.749,1.678,1.402,2.406,1.969
	c0.732,0.554,1.307,1.086,1.823,1.52c0.516,0.424,0.953,0.773,1.303,1.041c0.712,0.545,1.078,0.773,1.078,0.773
	s-0.133-0.399-0.499-1.211C247.042,186.795,246.801,186.283,246.488,185.671z M222.781,150.637c0.936,1.881,2.052,3.701,3.268,5.415
	c2.414,3.435,5.112,6.519,7.526,9.083c2.423,2.568,4.554,4.6,6.336,6.282c1.781,1.682,3.205,3.018,4.279,4.096
	c0.566,0.52,0.982,1.008,1.398,1.412c0.375,0.416,0.675,0.762,0.924,1.044c0.45,0.575,0.712,0.862,0.712,0.862
	s0.025-0.354-0.046-1.153c-0.041-0.392-0.162-0.862-0.308-1.47c-0.191-0.554-0.399-1.274-0.762-2.006
	c-0.67-1.511-1.74-3.33-3.26-5.374c-1.52-2.052-3.496-4.325-5.895-6.873c-2.398-2.547-5.22-5.345-7.817-8.317
	c-2.598-2.956-4.979-6.148-6.145-9.366c-0.558-1.594-0.774-3.185-0.653-4.629c0.037-0.762,0.204-1.445,0.425-2.086
	c-0.009,0.063-0.02,0.129-0.02,0.192c0,3.418,2.773,6.182,6.186,6.182c3.413,0,6.178-2.764,6.178-6.182
	c0-3.41-2.765-6.178-6.178-6.178c-2.314,0-4.321,1.27-5.378,3.151c-0.233,0.246-0.475,0.508-0.733,0.812
	c-0.683,0.97-1.54,2.202-1.923,3.846c-0.425,1.607-0.5,3.535-0.142,5.482C221.104,146.82,221.861,148.76,222.781,150.637z
	 M168.112,218.727c-0.204-0.612-0.467-1.183-0.767-1.753c-0.62-1.136-1.257-2.189-1.807-3.496c-0.033-0.083-0.058-0.179-0.096-0.271
	c-0.133,0.907-0.362,1.765-0.528,2.681c-0.092,0.55-0.225,1.086-0.366,1.615c-0.105,0.554-0.208,1.095-0.325,1.632l-0.092,0.341
	c0.059,0.038,0.113,0.075,0.171,0.134c0.812,0.815,1.179,1.706,1.337,2.572c0.199,0.878,0.208,1.753,0.315,2.535
	c0.025,0.149-0.32,0.142-0.37,0c-0.221-0.662-0.267-1.345-0.679-2.019c-0.291-0.48-0.716-1.07-1.148-1.632
	c-0.108,0.42-0.217,0.845-0.275,1.27c-0.124,0.521-0.274,1.036-0.424,1.544c-0.125,0.517-0.237,1.024-0.354,1.532
	c-0.291,0.891-0.482,1.765-0.736,2.605c0.396,0.221,0.808,0.57,0.982,0.778c0.516,0.563,0.646,1.232,0.607,1.902
	c-0.004,0.671-0.216,1.354-0.491,1.936c-0.017,0.037-0.087,0.037-0.1,0.004c-0.059-0.142-0.896-2.015-1.324-3.422
	c-0.158,0.587-0.391,1.166-0.499,1.711c-0.208,0.828-0.425,1.595-0.65,2.273c-0.217,0.691-0.404,1.299-0.558,1.795
	c-0.283,1.02-0.441,1.59-0.441,1.59s-0.009-0.146-0.033-0.425c-0.017-0.271-0.071-0.674-0.071-1.19
	c0.017-0.512,0.029-1.132,0.046-1.84c0.059-0.704,0.066-1.511,0.125-2.369c0.042-0.861,0.225-1.777,0.283-2.76
	c0.142-0.97,0.208-2.002,0.458-3.038c0.112-0.737,0.183-1.495,0.358-2.248c-0.112,0.066-0.233,0.129-0.366,0.186
	c-0.604,0.255-1.187,0.513-1.761,0.813c-1.194,0.637-2.447,1.428-3.126,2.581c-0.055,0.091-0.225,0.033-0.2-0.071
	c0.208-1.053,0.908-2.493,1.878-3.571c1.036-1.07,2.351-1.749,3.867-1.466c0.208-0.92,0.387-1.852,0.604-2.776
	c0.12-0.562,0.262-1.115,0.396-1.674c0.142-0.558,0.32-1.095,0.425-1.656c0.225-1.128,0.674-2.16,0.911-3.251
	c0.271-0.791,0.512-1.569,0.745-2.344c-0.607,0.699-1.311,1.182-2.064,1.561c-0.732,0.392-1.516,0.679-2.336,0.949
	c-0.815,0.271-1.619,0.541-2.389,0.908c-0.77,0.366-1.553,0.803-2.165,1.461c-3.109,3.097-4.566,8.2-4.217,13.066
	c0.399,5.092,2.489,9.292,5.074,12.597c1.777,2.252,3.543,4.629,5.865,6.045c0.958,0.604,1.157,0.133,1.186-0.52
	c0.021-0.48-0.054-1.054-0.029-1.444c0.075-0.971,0.412-1.944,0.699-2.848c0.346-0.936,0.691-1.815,0.892-2.686
	c0.841-3.5,2.114-6.843,3.043-9.828c0.786-2.552,1.345-5.332,1.003-8.009C168.52,220.014,168.332,219.344,168.112,218.727z
	 M130.389,213.129c0.841-0.092,2.123,0.037,3.339,0.504c1.216,0.424,2.39,1.228,2.972,2.668c0.824-0.354,1.686-0.629,2.489-1.065
	c0.949-0.524,1.932-0.971,2.831-1.545c0.899-0.561,1.782-1.136,2.581-1.761c0.624-0.454,1.207-0.911,1.765-1.369
	c-3.313,0.72-5.753-2.24-8.525-2.811c-3.33-0.57-6.502,0.105-9.524,1.569c-0.808,0.338-1.564,0.733-2.306,1.166
	c-0.754,0.462-1.49,0.907-2.202,1.345c-0.725,0.466-1.437,0.961-2.148,1.478c-0.712,0.512-1.44,0.979-2.16,1.49
	c-1.965,1.42-4.3,2.39-6.369,3.876c-0.883,0.633-0.6,1.011-0.033,1.294c0.408,0.204,0.966,0.362,1.308,0.537
	c1.731,0.887,3.313,2.381,5.194,3.039c0.933,0.337,1.902,0.675,2.89,0.966c0.999,0.262,2.022,0.491,3.067,0.699
	c0.521,0.1,1.037,0.195,1.562,0.279c0.524,0.07,1.057,0.107,1.573,0.142c1.053,0.074,2.11,0.107,3.147,0.096
	c1.739-0.105,3.597-0.421,5.328-0.991c1.698-0.646,3.33-1.437,4.57-2.539c1.357-1.22,2.057-2.443,2.535-3.685
	c0.462-1.253,0.679-2.576,1.104-3.908c0.029-0.088,0.054-0.18,0.092-0.27c-0.691,0.591-1.403,1.194-2.194,1.715
	c-0.944,0.633-1.985,1.141-2.993,1.731l-0.337,0.145c0,0.079,0.009,0.142,0,0.221c-0.366,2.311-2.439,3.285-4.005,4.321
	c-0.149,0.092-0.308-0.225-0.175-0.333c0.6-0.512,1.262-0.975,1.703-1.678c0.312-0.508,0.628-1.203,0.874-1.89
	c-0.441,0.162-0.874,0.324-1.295,0.482c-0.549,0.171-1.095,0.316-1.645,0.454c-0.549,0.121-1.099,0.208-1.636,0.324
	c-0.979,0.142-1.927,0.209-2.826,0.292c-0.104,0.47-0.353,0.933-0.512,1.157c-0.938,1.249-2.798,1.29-4.109,0.911
	c-0.041-0.008-0.054-0.079-0.017-0.1c0.167-0.054,2.069-1.194,3.347-1.969c-0.637-0.042-1.257-0.083-1.831-0.121
	c-0.857-0.066-1.641-0.112-2.331-0.324c-0.691-0.188-1.291-0.346-1.782-0.475c-0.966-0.283-1.507-0.471-1.507-0.471
	s0.558-0.037,1.523-0.075c0.483-0.017,1.066-0.024,1.74-0.037c0.675,0.046,1.416-0.125,2.235-0.2
	c0.811-0.116,1.703-0.158,2.636-0.32c0.915-0.208,1.873-0.441,2.88-0.645c0.688-0.187,1.391-0.379,2.09-0.641
	c-0.112-0.071-0.225-0.145-0.324-0.225c-0.483-0.388-0.958-0.808-1.44-1.224c-1.016-0.862-2.069-1.703-3.139-2.02
	C130.31,213.311,130.302,213.133,130.389,213.129z M232.709,203.983l-0.732,0.133c-0.491,0.071-0.966,0.129-1.452,0.237
	l-0.346,0.066c-0.084,0.108-0.196,0.241-0.333,0.383c-0.084,0.096-0.18,0.196-0.283,0.292c-0.105,0.096-0.217,0.204-0.342,0.312
	c-0.12,0.101-0.241,0.209-0.374,0.305c-0.142,0.1-0.275,0.199-0.425,0.274c-0.142,0.096-0.291,0.167-0.441,0.241
	c-0.142,0.088-0.3,0.146-0.441,0.208c-0.133,0.071-0.283,0.104-0.416,0.154c-0.133,0.046-0.267,0.066-0.383,0.1
	c-0.125,0.013-0.229,0.055-0.325,0.071c-0.1,0.017-0.175,0.029-0.249,0.037c-0.142,0.025-0.209,0.038-0.209,0.038
	s0.067-0.038,0.191-0.088c0.063-0.029,0.142-0.059,0.226-0.105c0.091-0.037,0.175-0.104,0.278-0.149
	c0.104-0.05,0.213-0.104,0.32-0.179c0.101-0.071,0.217-0.134,0.321-0.225c0.104-0.096,0.216-0.171,0.312-0.271
	c0.108-0.096,0.209-0.195,0.292-0.308c0.1-0.092,0.175-0.2,0.25-0.3c0.087-0.104,0.141-0.212,0.22-0.313
	c0.021-0.05,0.046-0.096,0.071-0.141c-0.258,0.062-0.52,0.1-0.778,0.162c-0.229,0.054-0.471,0.112-0.695,0.175
	c-0.233,0.041-0.466,0.087-0.691,0.133c-0.232,0.066-0.458,0.125-0.69,0.188c-0.217,0.05-0.45,0.105-0.671,0.154
	c-0.453,0.108-0.882,0.245-1.319,0.337c-0.441,0.088-0.849,0.241-1.27,0.329c-0.146,0.033-0.283,0.07-0.425,0.104
	c-0.029,0.029-0.054,0.059-0.079,0.096c-0.149,0.184-0.333,0.408-0.558,0.608c-0.221,0.208-0.471,0.403-0.729,0.591
	c-0.129,0.088-0.27,0.179-0.395,0.263c-0.142,0.079-0.271,0.162-0.396,0.229c-0.129,0.066-0.254,0.133-0.379,0.195
	c-0.12,0.055-0.232,0.108-0.341,0.154c-0.208,0.096-0.392,0.158-0.517,0.208s-0.195,0.083-0.195,0.083s0.063-0.045,0.179-0.12
	c0.105-0.075,0.267-0.171,0.441-0.313c0.092-0.066,0.191-0.142,0.291-0.217c0.092-0.079,0.196-0.166,0.296-0.254
	c0.105-0.087,0.2-0.183,0.296-0.278l0.283-0.3c0.166-0.208,0.333-0.404,0.449-0.596c-0.191,0.042-0.379,0.079-0.566,0.142
	c-0.725,0.175-1.402,0.325-1.994,0.467c-0.604,0.12-1.119,0.232-1.557,0.308c-0.433,0.066-0.778,0.117-1.003,0.162
	c-0.233,0.029-0.358,0.046-0.358,0.046s0.117-0.066,0.329-0.188c0.212-0.12,0.521-0.282,0.912-0.499
	c0.383-0.217,0.874-0.445,1.419-0.741c0.275-0.129,0.566-0.283,0.878-0.433c0.309-0.15,0.629-0.304,0.958-0.467
	c0.691-0.312,1.415-0.661,2.202-0.978c0.395-0.158,0.795-0.35,1.216-0.5c0.208-0.079,0.42-0.153,0.632-0.241
	c0.213-0.075,0.425-0.154,0.645-0.245l0.467-0.146c-0.042-0.046-0.088-0.1-0.15-0.158c-0.079-0.066-0.158-0.145-0.274-0.199
	c-0.1-0.075-0.233-0.138-0.366-0.196c-0.142-0.05-0.3-0.096-0.471-0.142c-0.171-0.021-0.346-0.066-0.541-0.074l-0.287-0.025
	c-0.101-0.004-0.208,0-0.304,0c-0.204-0.004-0.404,0.013-0.592,0.046c-0.199,0.025-0.387,0.042-0.574,0.083
	c-0.188,0.038-0.362,0.071-0.521,0.108c-0.329,0.063-0.583,0.167-0.769,0.221c-0.188,0.059-0.292,0.096-0.292,0.096
	s0.096-0.059,0.263-0.154c0.175-0.091,0.408-0.254,0.729-0.379c0.158-0.07,0.329-0.146,0.512-0.225
	c0.184-0.083,0.392-0.142,0.596-0.225c0.208-0.079,0.433-0.133,0.67-0.183c0.108-0.025,0.233-0.059,0.35-0.075l0.366-0.055
	c0.241-0.041,0.487-0.046,0.732-0.058c0.246,0.008,0.491,0.029,0.725,0.05c0.217,0.046,0.449,0.079,0.641,0.138
	c0.209,0.058,0.384,0.124,0.55,0.203c0.158,0.084,0.309,0.167,0.425,0.25c0.116,0.075,0.212,0.158,0.291,0.225
	c0.055,0.059,0.101,0.101,0.138,0.146l0.425-0.117c0.47-0.145,0.949-0.25,1.436-0.362l0.729-0.166l0.737-0.142
	c0.99-0.195,1.982-0.309,2.981-0.425c0.366-0.037,0.732-0.066,1.095-0.092c-0.346-0.357-0.791-0.778-1.352-1.136
	c-0.566-0.355-1.249-0.737-2.049-1.008c-1.598-0.541-3.759-0.782-6.223-0.191c-1.986,0.458-4.084,1.478-5.94,2.739
	c-1.861,1.257-3.505,2.734-4.896,4.112c-1.382,1.383-2.51,2.66-3.322,3.589c-0.808,0.928-1.299,1.507-1.299,1.507
	s0.754-0.066,1.982-0.225c1.225-0.167,2.923-0.438,4.788-0.754c1.823-0.316,3.829-0.666,5.786-1.007
	c1.894-0.338,3.625-0.604,5.061-0.933c2.156-0.524,3.755-1.274,5.096-2.115c1.332-0.857,2.348-1.702,2.939-2.335
	c-0.366,0.054-0.732,0.108-1.111,0.166C233.192,203.929,232.942,203.962,232.709,203.983z"/>
</svg>
